{"accessors":[{"bufferView":0,"byteOffset":0,"componentType":5126,"count":36,"max":[1,0.5,6],"min":[-1,-0.5,-6],"normalized":false,"type":"VEC3"},{"bufferView":1,"byteOffset":0,"componentType":5126,"count":36,"max":[0,0,0.000076,-1],"min":[-1,-1,-1,-1],"normalized":false,"type":"VEC4"},{"bufferView":2,"byteOffset":0,"componentType":5126,"count":36,"max":[1,1,1],"min":[-1,-1,-1],"normalized":false,"type":"VEC3"},{"bufferView":3,"byteOffset":0,"componentType":5126,"count":36,"max":[1,1],"min":[0,0],"normalized":false,"type":"VEC2"},{"bufferView":4,"byteOffset":0,"componentType":5125,"count":36,"max":[35],"min":[0],"normalized":false,"type":"SCALAR"},{"bufferView":5,"byteOffset":0,"componentType":5126,"count":36,"max":[4,0.5,3],"min":[-4,-0.5,-3],"normalized":false,"type":"VEC3"},{"bufferView":6,"byteOffset":0,"componentType":5126,"count":36,"max":[0,0,0.000076,-1],"min":[-1,-1,-1,-1],"normalized":false,"type":"VEC4"},{"bufferView":7,"byteOffset":0,"componentType":5126,"count":36,"max":[1,1,1],"min":[-1,-1,-1],"normalized":false,"type":"VEC3"},{"bufferView":8,"byteOffset":0,"componentType":5126,"count":36,"max":[1,1],"min":[0,0],"normalized":false,"type":"VEC2"},{"bufferView":9,"byteOffset":0,"componentType":5125,"count":36,"max":[35],"min":[0],"normalized":false,"type":"SCALAR"},{"bufferView":10,"byteOffset":0,"componentType":5126,"count":36,"max":[4,0.5,3],"min":[-4,-0.5,-3],"normalized":false,"type":"VEC3"},{"bufferView":11,"byteOffset":0,"componentType":5126,"count":36,"max":[0,0,0.000076,-1],"min":[-1,-1,-1,-1],"normalized":false,"type":"VEC4"},{"bufferView":12,"byteOffset":0,"componentType":5126,"count":36,"max":[1,1,1],"min":[-1,-1,-1],"normalized":false,"type":"VEC3"},{"bufferView":13,"byteOffset":0,"componentType":5126,"count":36,"max":[1,1],"min":[0,0],"normalized":false,"type":"VEC2"},{"bufferView":14,"byteOffset":0,"componentType":5125,"count":36,"max":[35],"min":[0],"normalized":false,"type":"SCALAR"},{"bufferView":15,"byteOffset":0,"componentType":5126,"count":36,"max":[1,0.5,6],"min":[-1,-0.5,-6],"normalized":false,"type":"VEC3"},{"bufferView":16,"byteOffset":0,"componentType":5126,"count":36,"max":[0,0,0.000076,-1],"min":[-1,-1,-1,-1],"normalized":false,"type":"VEC4"},{"bufferView":17,"byteOffset":0,"componentType":5126,"count":36,"max":[1,1,1],"min":[-1,-1,-1],"normalized":false,"type":"VEC3"},{"bufferView":18,"byteOffset":0,"componentType":5126,"count":36,"max":[1,1],"min":[0,0],"normalized":false,"type":"VEC2"},{"bufferView":19,"byteOffset":0,"componentType":5125,"count":36,"max":[35],"min":[0],"normalized":false,"type":"SCALAR"},{"bufferView":20,"byteOffset":0,"componentType":5126,"count":36,"max":[4,0.5,3],"min":[-4,-0.5,-3],"normalized":false,"type":"VEC3"},{"bufferView":21,"byteOffset":0,"componentType":5126,"count":36,"max":[0,0,0.000076,-1],"min":[-1,-1,-1,-1],"normalized":false,"type":"VEC4"},{"bufferView":22,"byteOffset":0,"componentType":5126,"count":36,"max":[1,1,1],"min":[-1,-1,-1],"normalized":false,"type":"VEC3"},{"bufferView":23,"byteOffset":0,"componentType":5126,"count":36,"max":[1,1],"min":[0,0],"normalized":false,"type":"VEC2"},{"bufferView":24,"byteOffset":0,"componentType":5125,"count":36,"max":[35],"min":[0],"normalized":false,"type":"SCALAR"},{"bufferView":25,"byteOffset":0,"componentType":5126,"count":36,"max":[4,0.5,3],"min":[-4,-0.5,-3],"normalized":false,"type":"VEC3"},{"bufferView":26,"byteOffset":0,"componentType":5126,"count":36,"max":[0,0,0.000076,-1],"min":[-1,-1,-1,-1],"normalized":false,"type":"VEC4"},{"bufferView":27,"byteOffset":0,"componentType":5126,"count":36,"max":[1,1,1],"min":[-1,-1,-1],"normalized":false,"type":"VEC3"},{"bufferView":28,"byteOffset":0,"componentType":5126,"count":36,"max":[1,1],"min":[0,0],"normalized":false,"type":"VEC2"},{"bufferView":29,"byteOffset":0,"componentType":5125,"count":36,"max":[35],"min":[0],"normalized":false,"type":"SCALAR"},{"bufferView":30,"byteOffset":0,"componentType":5126,"count":36,"max":[4,2,0.001],"min":[-4,-2,-0.001],"normalized":false,"type":"VEC3"},{"bufferView":31,"byteOffset":0,"componentType":5126,"count":36,"max":[0,0,0.000076,-1],"min":[-1,-1,-1,-1],"normalized":false,"type":"VEC4"},{"bufferView":32,"byteOffset":0,"componentType":5126,"count":36,"max":[1,1,1],"min":[-1,-1,-1],"normalized":false,"type":"VEC3"},{"bufferView":33,"byteOffset":0,"componentType":5126,"count":36,"max":[1,1],"min":[0,0],"normalized":false,"type":"VEC2"},{"bufferView":34,"byteOffset":0,"componentType":5125,"count":36,"max":[35],"min":[0],"normalized":false,"type":"SCALAR"},{"bufferView":35,"byteOffset":0,"componentType":5126,"count":36,"max":[0.001,2,1.534162],"min":[-0.001,-2,-1.534162],"normalized":false,"type":"VEC3"},{"bufferView":36,"byteOffset":0,"componentType":5126,"count":36,"max":[0,0,0.000076,-1],"min":[-1,-1,-1,-1],"normalized":false,"type":"VEC4"},{"bufferView":37,"byteOffset":0,"componentType":5126,"count":36,"max":[1,1,1],"min":[-1,-1,-1],"normalized":false,"type":"VEC3"},{"bufferView":38,"byteOffset":0,"componentType":5126,"count":36,"max":[1,1],"min":[0,0],"normalized":false,"type":"VEC2"},{"bufferView":39,"byteOffset":0,"componentType":5125,"count":36,"max":[35],"min":[0],"normalized":false,"type":"SCALAR"},{"bufferView":40,"byteOffset":0,"componentType":5126,"count":36,"max":[0.001,2,4],"min":[-0.001,-2,-4],"normalized":false,"type":"VEC3"},{"bufferView":41,"byteOffset":0,"componentType":5126,"count":36,"max":[0,0,0.000076,-1],"min":[-1,-1,-1,-1],"normalized":false,"type":"VEC4"},{"bufferView":42,"byteOffset":0,"componentType":5126,"count":36,"max":[1,1,1],"min":[-1,-1,-1],"normalized":false,"type":"VEC3"},{"bufferView":43,"byteOffset":0,"componentType":5126,"count":36,"max":[1,1],"min":[0,0],"normalized":false,"type":"VEC2"},{"bufferView":44,"byteOffset":0,"componentType":5125,"count":36,"max":[35],"min":[0],"normalized":false,"type":"SCALAR"},{"bufferView":45,"byteOffset":0,"componentType":5126,"count":36,"max":[1,2,0.001],"min":[-1,-2,-0.001],"normalized":false,"type":"VEC3"},{"bufferView":46,"byteOffset":0,"componentType":5126,"count":36,"max":[0,0,0.000076,-1],"min":[-1,-1,-1,-1],"normalized":false,"type":"VEC4"},{"bufferView":47,"byteOffset":0,"componentType":5126,"count":36,"max":[1,1,1],"min":[-1,-1,-1],"normalized":false,"type":"VEC3"},{"bufferView":48,"byteOffset":0,"componentType":5126,"count":36,"max":[1,1],"min":[0,0],"normalized":false,"type":"VEC2"},{"bufferView":49,"byteOffset":0,"componentType":5125,"count":36,"max":[35],"min":[0],"normalized":false,"type":"SCALAR"},{"bufferView":50,"byteOffset":0,"componentType":5126,"count":36,"max":[4,2,0.001],"min":[-4,-2,-0.001],"normalized":false,"type":"VEC3"},{"bufferView":51,"byteOffset":0,"componentType":5126,"count":36,"max":[0,0,0.000076,-1],"min":[-1,-1,-1,-1],"normalized":false,"type":"VEC4"},{"bufferView":52,"byteOffset":0,"componentType":5126,"count":36,"max":[1,1,1],"min":[-1,-1,-1],"normalized":false,"type":"VEC3"},{"bufferView":53,"byteOffset":0,"componentType":5126,"count":36,"max":[1,1],"min":[0,0],"normalized":false,"type":"VEC2"},{"bufferView":54,"byteOffset":0,"componentType":5125,"count":36,"max":[35],"min":[0],"normalized":false,"type":"SCALAR"},{"bufferView":55,"byteOffset":0,"componentType":5126,"count":36,"max":[4,2,0.001],"min":[-4,-2,-0.001],"normalized":false,"type":"VEC3"},{"bufferView":56,"byteOffset":0,"componentType":5126,"count":36,"max":[0,0,0.000076,-1],"min":[-1,-1,-1,-1],"normalized":false,"type":"VEC4"},{"bufferView":57,"byteOffset":0,"componentType":5126,"count":36,"max":[1,1,1],"min":[-1,-1,-1],"normalized":false,"type":"VEC3"},{"bufferView":58,"byteOffset":0,"componentType":5126,"count":36,"max":[1,1],"min":[0,0],"normalized":false,"type":"VEC2"},{"bufferView":59,"byteOffset":0,"componentType":5125,"count":36,"max":[35],"min":[0],"normalized":false,"type":"SCALAR"},{"bufferView":60,"byteOffset":0,"componentType":5126,"count":36,"max":[0.001,2,3],"min":[-0.001,-2,-3],"normalized":false,"type":"VEC3"},{"bufferView":61,"byteOffset":0,"componentType":5126,"count":36,"max":[0,0,0.000076,-1],"min":[-1,-1,-1,-1],"normalized":false,"type":"VEC4"},{"bufferView":62,"byteOffset":0,"componentType":5126,"count":36,"max":[1,1,1],"min":[-1,-1,-1],"normalized":false,"type":"VEC3"},{"bufferView":63,"byteOffset":0,"componentType":5126,"count":36,"max":[1,1],"min":[0,0],"normalized":false,"type":"VEC2"},{"bufferView":64,"byteOffset":0,"componentType":5125,"count":36,"max":[35],"min":[0],"normalized":false,"type":"SCALAR"},{"bufferView":65,"byteOffset":0,"componentType":5126,"count":36,"max":[5,2,0.001],"min":[-5,-2,-0.001],"normalized":false,"type":"VEC3"},{"bufferView":66,"byteOffset":0,"componentType":5126,"count":36,"max":[0,0,0.000076,-1],"min":[-1,-1,-1,-1],"normalized":false,"type":"VEC4"},{"bufferView":67,"byteOffset":0,"componentType":5126,"count":36,"max":[1,1,1],"min":[-1,-1,-1],"normalized":false,"type":"VEC3"},{"bufferView":68,"byteOffset":0,"componentType":5126,"count":36,"max":[1,1],"min":[0,0],"normalized":false,"type":"VEC2"},{"bufferView":69,"byteOffset":0,"componentType":5125,"count":36,"max":[35],"min":[0],"normalized":false,"type":"SCALAR"},{"bufferView":70,"byteOffset":0,"componentType":5126,"count":36,"max":[0.001,2,3],"min":[-0.001,-2,-3],"normalized":false,"type":"VEC3"},{"bufferView":71,"byteOffset":0,"componentType":5126,"count":36,"max":[0,0,0.000076,-1],"min":[-1,-1,-1,-1],"normalized":false,"type":"VEC4"},{"bufferView":72,"byteOffset":0,"componentType":5126,"count":36,"max":[1,1,1],"min":[-1,-1,-1],"normalized":false,"type":"VEC3"},{"bufferView":73,"byteOffset":0,"componentType":5126,"count":36,"max":[1,1],"min":[0,0],"normalized":false,"type":"VEC2"},{"bufferView":74,"byteOffset":0,"componentType":5125,"count":36,"max":[35],"min":[0],"normalized":false,"type":"SCALAR"},{"bufferView":75,"byteOffset":0,"componentType":5126,"count":36,"max":[0.001,2,1.509063],"min":[-0.001,-2,-1.509063],"normalized":false,"type":"VEC3"},{"bufferView":76,"byteOffset":0,"componentType":5126,"count":36,"max":[0,0,0.000076,-1],"min":[-1,-1,-1,-1],"normalized":false,"type":"VEC4"},{"bufferView":77,"byteOffset":0,"componentType":5126,"count":36,"max":[1,1,1],"min":[-1,-1,-1],"normalized":false,"type":"VEC3"},{"bufferView":78,"byteOffset":0,"componentType":5126,"count":36,"max":[1,1],"min":[0,0],"normalized":false,"type":"VEC2"},{"bufferView":79,"byteOffset":0,"componentType":5125,"count":36,"max":[35],"min":[0],"normalized":false,"type":"SCALAR"}],"asset":{"generator":"Godot Engine v4.0.1.stable.official@cacf49999e3fb37281d66cc591ca8bebc5712d4d","version":"2.0"},"bufferViews":[{"buffer":0,"byteLength":432,"byteOffset":0},{"buffer":0,"byteLength":576,"byteOffset":432},{"buffer":0,"byteLength":432,"byteOffset":1008},{"buffer":0,"byteLength":288,"byteOffset":1440},{"buffer":0,"byteLength":144,"byteOffset":1728},{"buffer":0,"byteLength":432,"byteOffset":1872},{"buffer":0,"byteLength":576,"byteOffset":2304},{"buffer":0,"byteLength":432,"byteOffset":2880},{"buffer":0,"byteLength":288,"byteOffset":3312},{"buffer":0,"byteLength":144,"byteOffset":3600},{"buffer":0,"byteLength":432,"byteOffset":3744},{"buffer":0,"byteLength":576,"byteOffset":4176},{"buffer":0,"byteLength":432,"byteOffset":4752},{"buffer":0,"byteLength":288,"byteOffset":5184},{"buffer":0,"byteLength":144,"byteOffset":5472},{"buffer":0,"byteLength":432,"byteOffset":5616},{"buffer":0,"byteLength":576,"byteOffset":6048},{"buffer":0,"byteLength":432,"byteOffset":6624},{"buffer":0,"byteLength":288,"byteOffset":7056},{"buffer":0,"byteLength":144,"byteOffset":7344},{"buffer":0,"byteLength":432,"byteOffset":7488},{"buffer":0,"byteLength":576,"byteOffset":7920},{"buffer":0,"byteLength":432,"byteOffset":8496},{"buffer":0,"byteLength":288,"byteOffset":8928},{"buffer":0,"byteLength":144,"byteOffset":9216},{"buffer":0,"byteLength":432,"byteOffset":9360},{"buffer":0,"byteLength":576,"byteOffset":9792},{"buffer":0,"byteLength":432,"byteOffset":10368},{"buffer":0,"byteLength":288,"byteOffset":10800},{"buffer":0,"byteLength":144,"byteOffset":11088},{"buffer":0,"byteLength":432,"byteOffset":11232},{"buffer":0,"byteLength":576,"byteOffset":11664},{"buffer":0,"byteLength":432,"byteOffset":12240},{"buffer":0,"byteLength":288,"byteOffset":12672},{"buffer":0,"byteLength":144,"byteOffset":12960},{"buffer":0,"byteLength":432,"byteOffset":13104},{"buffer":0,"byteLength":576,"byteOffset":13536},{"buffer":0,"byteLength":432,"byteOffset":14112},{"buffer":0,"byteLength":288,"byteOffset":14544},{"buffer":0,"byteLength":144,"byteOffset":14832},{"buffer":0,"byteLength":432,"byteOffset":14976},{"buffer":0,"byteLength":576,"byteOffset":15408},{"buffer":0,"byteLength":432,"byteOffset":15984},{"buffer":0,"byteLength":288,"byteOffset":16416},{"buffer":0,"byteLength":144,"byteOffset":16704},{"buffer":0,"byteLength":432,"byteOffset":16848},{"buffer":0,"byteLength":576,"byteOffset":17280},{"buffer":0,"byteLength":432,"byteOffset":17856},{"buffer":0,"byteLength":288,"byteOffset":18288},{"buffer":0,"byteLength":144,"byteOffset":18576},{"buffer":0,"byteLength":432,"byteOffset":18720},{"buffer":0,"byteLength":576,"byteOffset":19152},{"buffer":0,"byteLength":432,"byteOffset":19728},{"buffer":0,"byteLength":288,"byteOffset":20160},{"buffer":0,"byteLength":144,"byteOffset":20448},{"buffer":0,"byteLength":432,"byteOffset":20592},{"buffer":0,"byteLength":576,"byteOffset":21024},{"buffer":0,"byteLength":432,"byteOffset":21600},{"buffer":0,"byteLength":288,"byteOffset":22032},{"buffer":0,"byteLength":144,"byteOffset":22320},{"buffer":0,"byteLength":432,"byteOffset":22464},{"buffer":0,"byteLength":576,"byteOffset":22896},{"buffer":0,"byteLength":432,"byteOffset":23472},{"buffer":0,"byteLength":288,"byteOffset":23904},{"buffer":0,"byteLength":144,"byteOffset":24192},{"buffer":0,"byteLength":432,"byteOffset":24336},{"buffer":0,"byteLength":576,"byteOffset":24768},{"buffer":0,"byteLength":432,"byteOffset":25344},{"buffer":0,"byteLength":288,"byteOffset":25776},{"buffer":0,"byteLength":144,"byteOffset":26064},{"buffer":0,"byteLength":432,"byteOffset":26208},{"buffer":0,"byteLength":576,"byteOffset":26640},{"buffer":0,"byteLength":432,"byteOffset":27216},{"buffer":0,"byteLength":288,"byteOffset":27648},{"buffer":0,"byteLength":144,"byteOffset":27936},{"buffer":0,"byteLength":432,"byteOffset":28080},{"buffer":0,"byteLength":576,"byteOffset":28512},{"buffer":0,"byteLength":432,"byteOffset":29088},{"buffer":0,"byteLength":288,"byteOffset":29520},{"buffer":0,"byteLength":144,"byteOffset":29808}],"buffers":[{"byteLength":29952,"uri":"safehouseDefault0.bin"}],"extensions":{"KHR_lights_punctual":{"lights":[{"color":[1,1,1],"intensity":1,"range":340282346638528860000000000000000000000,"type":"directional"}]}},"extensionsUsed":["KHR_lights_punctual"],"materials":[{"extensions":{},"pbrMetallicRoughness":{"baseColorFactor":[0.99999988079071,0.99999988079071,0.99999988079071,1],"metallicFactor":0,"roughnessFactor":1}},{"extensions":{},"pbrMetallicRoughness":{"baseColorFactor":[0.99999988079071,0.99999988079071,0.99999988079071,1],"metallicFactor":0,"roughnessFactor":1}},{"extensions":{},"pbrMetallicRoughness":{"baseColorFactor":[0.99999988079071,0.99999988079071,0.99999988079071,1],"metallicFactor":0,"roughnessFactor":1}},{"extensions":{},"pbrMetallicRoughness":{"baseColorFactor":[0.99999988079071,0.99999988079071,0.99999988079071,1],"metallicFactor":0,"roughnessFactor":1}},{"extensions":{},"pbrMetallicRoughness":{"baseColorFactor":[0.99999988079071,0.99999988079071,0.99999988079071,1],"metallicFactor":0,"roughnessFactor":1}},{"extensions":{},"pbrMetallicRoughness":{"baseColorFactor":[0.99999988079071,0.99999988079071,0.99999988079071,1],"metallicFactor":0,"roughnessFactor":1}},{"extensions":{},"pbrMetallicRoughness":{"baseColorFactor":[0.99999988079071,0.99999988079071,0.99999988079071,1],"metallicFactor":0,"roughnessFactor":1}},{"extensions":{},"pbrMetallicRoughness":{"baseColorFactor":[0.99999988079071,0.99999988079071,0.99999988079071,1],"metallicFactor":0,"roughnessFactor":1}},{"extensions":{},"pbrMetallicRoughness":{"baseColorFactor":[0.99999988079071,0.99999988079071,0.99999988079071,1],"metallicFactor":0,"roughnessFactor":1}},{"extensions":{},"pbrMetallicRoughness":{"baseColorFactor":[0.99999988079071,0.99999988079071,0.99999988079071,1],"metallicFactor":0,"roughnessFactor":1}},{"extensions":{},"pbrMetallicRoughness":{"baseColorFactor":[0.99999988079071,0.99999988079071,0.99999988079071,1],"metallicFactor":0,"roughnessFactor":1}},{"extensions":{},"pbrMetallicRoughness":{"baseColorFactor":[0.99999988079071,0.99999988079071,0.99999988079071,1],"metallicFactor":0,"roughnessFactor":1}},{"extensions":{},"pbrMetallicRoughness":{"baseColorFactor":[0.99999988079071,0.99999988079071,0.99999988079071,1],"metallicFactor":0,"roughnessFactor":1}},{"extensions":{},"pbrMetallicRoughness":{"baseColorFactor":[0.99999988079071,0.99999988079071,0.99999988079071,1],"metallicFactor":0,"roughnessFactor":1}},{"extensions":{},"pbrMetallicRoughness":{"baseColorFactor":[0.99999988079071,0.99999988079071,0.99999988079071,1],"metallicFactor":0,"roughnessFactor":1}},{"extensions":{},"pbrMetallicRoughness":{"baseColorFactor":[0.99999988079071,0.99999988079071,0.99999988079071,1],"metallicFactor":0,"roughnessFactor":1}}],"meshes":[{"extras":{"targetNames":[]},"primitives":[{"attributes":{"NORMAL":2,"POSITION":0,"TANGENT":1,"TEXCOORD_0":3},"indices":4,"material":0,"mode":4}]},{"extras":{"targetNames":[]},"primitives":[{"attributes":{"NORMAL":7,"POSITION":5,"TANGENT":6,"TEXCOORD_0":8},"indices":9,"material":1,"mode":4}]},{"extras":{"targetNames":[]},"primitives":[{"attributes":{"NORMAL":12,"POSITION":10,"TANGENT":11,"TEXCOORD_0":13},"indices":14,"material":2,"mode":4}]},{"extras":{"targetNames":[]},"primitives":[{"attributes":{"NORMAL":17,"POSITION":15,"TANGENT":16,"TEXCOORD_0":18},"indices":19,"material":3,"mode":4}]},{"extras":{"targetNames":[]},"primitives":[{"attributes":{"NORMAL":22,"POSITION":20,"TANGENT":21,"TEXCOORD_0":23},"indices":24,"material":4,"mode":4}]},{"extras":{"targetNames":[]},"primitives":[{"attributes":{"NORMAL":27,"POSITION":25,"TANGENT":26,"TEXCOORD_0":28},"indices":29,"material":5,"mode":4}]},{"extras":{"targetNames":[]},"primitives":[{"attributes":{"NORMAL":32,"POSITION":30,"TANGENT":31,"TEXCOORD_0":33},"indices":34,"material":6,"mode":4}]},{"extras":{"targetNames":[]},"primitives":[{"attributes":{"NORMAL":37,"POSITION":35,"TANGENT":36,"TEXCOORD_0":38},"indices":39,"material":7,"mode":4}]},{"extras":{"targetNames":[]},"primitives":[{"attributes":{"NORMAL":42,"POSITION":40,"TANGENT":41,"TEXCOORD_0":43},"indices":44,"material":8,"mode":4}]},{"extras":{"targetNames":[]},"primitives":[{"attributes":{"NORMAL":47,"POSITION":45,"TANGENT":46,"TEXCOORD_0":48},"indices":49,"material":9,"mode":4}]},{"extras":{"targetNames":[]},"primitives":[{"attributes":{"NORMAL":52,"POSITION":50,"TANGENT":51,"TEXCOORD_0":53},"indices":54,"material":10,"mode":4}]},{"extras":{"targetNames":[]},"primitives":[{"attributes":{"NORMAL":57,"POSITION":55,"TANGENT":56,"TEXCOORD_0":58},"indices":59,"material":11,"mode":4}]},{"extras":{"targetNames":[]},"primitives":[{"attributes":{"NORMAL":62,"POSITION":60,"TANGENT":61,"TEXCOORD_0":63},"indices":64,"material":12,"mode":4}]},{"extras":{"targetNames":[]},"primitives":[{"attributes":{"NORMAL":67,"POSITION":65,"TANGENT":66,"TEXCOORD_0":68},"indices":69,"material":13,"mode":4}]},{"extras":{"targetNames":[]},"primitives":[{"attributes":{"NORMAL":72,"POSITION":70,"TANGENT":71,"TEXCOORD_0":73},"indices":74,"material":14,"mode":4}]},{"extras":{"targetNames":[]},"primitives":[{"attributes":{"NORMAL":77,"POSITION":75,"TANGENT":76,"TEXCOORD_0":78},"indices":79,"material":15,"mode":4}]}],"nodes":[{"children":[1,2,22],"extensions":{},"name":"safehouseDefault"},{"extensions":{},"name":"WorldEnvironment"},{"children":[3,7,11],"extensions":{},"name":"geometry"},{"children":[4,5,6],"extensions":{},"name":"floor"},{"extensions":{},"mesh":0,"name":"CSGBox3D2","translation":[0,0.524093747138977,0]},{"extensions":{},"mesh":1,"name":"CSGBox3D23","translation":[4.98426532745361,0.524093747138977,0]},{"extensions":{},"mesh":2,"name":"CSGBox3D32","translation":[-5.01599979400635,0.512000024318695,-3]},{"children":[8,9,10],"extensions":{},"name":"ceiling"},{"extensions":{},"mesh":3,"name":"CSGBox3D102","translation":[0,3.52409362792969,0]},{"extensions":{},"mesh":4,"name":"CSGBox3D122","translation":[4.98426532745361,3.52409362792969,0]},{"extensions":{},"mesh":5,"name":"CSGBox3D132","translation":[-5.01599979400635,3.51200008392334,-3]},{"children":[12,13,14,15,16,17,18,19,20,21],"extensions":{},"name":"walls"},{"extensions":{},"mesh":6,"name":"CSGBox3D42","translation":[-5.01599979400635,1.51200008392334,0]},{"extensions":{},"mesh":7,"name":"CSGBox3D52","translation":[1.00481712818146,1.51200008392334,4.53075504302979]},{"extensions":{},"mesh":8,"name":"CSGBox3D104","translation":[-0.99518287181854,1.51200008392334,3.99027633666992]},{"extensions":{},"mesh":9,"name":"CSGBox3D112","translation":[-0.01599979400635,1.51200008392334,6]},{"extensions":{},"mesh":10,"name":"CSGBox3D62","translation":[4.98400020599365,1.51200008392334,-3]},{"extensions":{},"mesh":11,"name":"CSGBox3D124","translation":[4.98400020599365,1.51200008392334,3]},{"extensions":{},"mesh":12,"name":"CSGBox3D72","translation":[8.98400020599365,1.51200008392334,0]},{"extensions":{},"mesh":13,"name":"CSGBox3D82","translation":[-4.01599979400635,1.51200008392334,-6]},{"extensions":{},"mesh":14,"name":"CSGBox3D92","translation":[-9.01599884033203,1.51200008392334,-3]},{"extensions":{},"mesh":15,"name":"CSGBox3D142","translation":[0.975081205368042,1.51200008392334,-4.50035953521729]},{"extensions":{"KHR_lights_punctual":{"light":0}},"name":"DirectionalLight3D","rotation":[-0.14335195720196,0.623376369476318,0.11764170974493,0.759613394737244],"translation":[13.099781036377,6.69348049163818,0.228306770324707]}],"scene":0,"scenes":[{"nodes":[0]}]}